<svg width="43" height="43" viewBox="0 0 43 43" fill="none" xmlns="http://www.w3.org/2000/svg">
<circle cx="21.3754" cy="21.9711" r="21" fill="#926CFF"/>
<path d="M10.5496 19.5502C11.2823 18.8333 12.4704 18.8333 13.2032 19.5502L20.6769 26.8623C21.4096 27.5792 21.4096 28.7416 20.6769 29.4585C19.9441 30.1754 18.756 30.1754 18.0233 29.4585L10.5496 22.1464C9.81681 21.4295 9.81681 20.2671 10.5496 19.5502Z" fill="white"/>
<path fill-rule="evenodd" clip-rule="evenodd" d="M32.4507 15.5374C33.1831 16.254 33.1831 17.4159 32.4507 18.1325L20.8702 29.4625C20.1378 30.1791 18.9503 30.1792 18.2178 29.4626C17.4854 28.746 17.4854 27.5841 18.2178 26.8675L29.7983 15.5375C30.5307 14.8209 31.7182 14.8208 32.4507 15.5374Z" fill="white"/>
</svg>
