<svg width="50" height="50" viewBox="0 0 50 50" fill="none" xmlns="http://www.w3.org/2000/svg">
<path d="M49.9984 40.2129C49.9911 37.6205 48.9583 35.1362 47.1254 33.3028C45.2926 31.4693 42.8087 30.4356 40.2163 30.4274C38.9266 30.4102 37.6466 30.6516 36.4518 31.1374C35.257 31.6231 34.1717 32.3433 33.2598 33.2555C32.348 34.1676 31.6282 35.2533 31.1428 36.4482C30.6575 37.6432 30.4166 38.9233 30.4342 40.2129C30.4337 41.4978 30.6864 42.7702 31.1778 43.9574C31.6692 45.1447 32.3897 46.2234 33.2981 47.1321C34.2065 48.0409 35.285 48.7617 36.472 49.2535C37.6591 49.7453 38.9314 49.9985 40.2163 49.9985C42.799 49.9593 45.265 48.9157 47.0912 47.0888C48.9173 45.262 49.9601 42.7957 49.9984 40.2129Z" fill="url(#paint0_linear)" fill-opacity="0.21"/>
<path d="M30.4342 9.78737C30.4133 11.0656 30.6546 12.3346 31.1433 13.5159C31.632 14.6973 32.3576 15.7659 33.2754 16.6559C34.169 17.5969 35.2482 18.342 36.4448 18.8441C37.6413 19.3463 38.9292 19.5944 40.2266 19.5729C41.5071 19.5894 42.7769 19.3385 43.9549 18.8362C45.1328 18.3339 46.193 17.5913 47.0676 16.6559C48.0061 15.7779 48.7505 14.7132 49.2529 13.5303C49.7553 12.3474 50.0045 11.0724 49.9846 9.78737C50.006 8.48941 49.7577 7.20113 49.2556 6.00402C48.7535 4.80691 48.0085 3.72703 47.0676 2.83267C46.1791 1.9184 45.1129 1.19561 43.9347 0.708773C42.7564 0.221936 41.491 -0.0186469 40.2163 0.00182808C38.9266 -0.0153355 37.6466 0.226078 36.4518 0.711814C35.257 1.19755 34.1717 1.91776 33.2598 2.82992C32.348 3.74208 31.6282 4.82769 31.1429 6.02267C30.6575 7.21764 30.4166 8.49773 30.4342 9.78737Z" fill="url(#paint1_linear)" fill-opacity="0.21"/>
<path d="M19.5659 40.2129C19.5664 38.928 19.3137 37.6556 18.8223 36.4684C18.3309 35.2812 17.6105 34.2024 16.7021 33.2937C15.7937 32.385 14.7151 31.6641 13.5281 31.1723C12.3411 30.6805 11.0687 30.4274 9.78385 30.4274C8.4942 30.4102 7.21419 30.6516 6.01939 31.1374C4.82459 31.6231 3.73923 32.3433 2.82739 33.2555C1.91555 34.1676 1.19573 35.2533 0.710412 36.4482C0.225097 37.6432 -0.0158655 38.9233 0.00175257 40.2129C-0.0230374 41.4949 0.215393 42.7683 0.702303 43.9544C1.18921 45.1406 1.91425 46.2142 2.8326 47.109C3.73099 48.0418 4.81176 48.7798 6.00765 49.2769C7.20353 49.774 8.48893 50.0196 9.78385 49.9985C11.0719 50.0221 12.3507 49.7764 13.5382 49.277C14.7257 48.7777 15.7959 48.0357 16.6799 47.0987C17.6128 46.2143 18.3512 45.1453 18.8481 43.9598C19.345 42.7742 19.5895 41.4982 19.5659 40.2129Z" fill="url(#paint2_linear)" fill-opacity="0.21"/>
<path d="M9.78449 0.00180953C8.49484 -0.0153541 7.21483 0.226059 6.02003 0.711795C4.82523 1.19753 3.73987 1.91774 2.82803 2.8299C1.91619 3.74206 1.19637 4.82768 0.711051 6.02265C0.225737 7.21762 -0.0152258 8.49771 0.00239233 9.78736C-0.0198353 11.0649 0.219877 12.3334 0.706748 13.5147C1.19362 14.696 1.91732 15.765 2.83324 16.6559C3.72835 17.5948 4.80789 18.3386 6.0041 18.8406C7.20031 19.3426 8.48736 19.5919 9.78449 19.5729C11.074 19.5958 12.354 19.3481 13.5419 18.8456C14.7297 18.3432 15.7989 17.5972 16.6806 16.6559C17.6148 15.7754 18.3552 14.7099 18.8545 13.5273C19.3538 12.3447 19.601 11.0709 19.5804 9.78736C19.6025 8.49085 19.3563 7.20378 18.8573 6.00695C18.3583 4.81013 17.6172 3.72941 16.6806 2.83265C15.786 1.91398 14.7124 1.18872 13.5262 0.701787C12.34 0.214853 11.0665 -0.0233906 9.78449 0.00180953Z" fill="url(#paint3_linear)" fill-opacity="0.21"/>
<path d="M40.2096 30.9274L40.2147 30.9274C42.6751 30.9352 45.0324 31.9162 46.7718 33.6563C48.5102 35.3952 49.4903 37.751 49.4984 40.2098C49.461 42.661 48.4708 45.0015 46.7375 46.7353C45.0042 48.4693 42.6639 49.4603 40.2125 49.4985C38.9946 49.498 37.7886 49.2578 36.6634 48.7916C35.5371 48.3249 34.5137 47.6409 33.6517 46.7787C32.7897 45.9164 32.1061 44.8927 31.6398 43.7662C31.1735 42.6397 30.9338 41.4323 30.9342 40.2131L30.9341 40.2061C30.9174 38.9832 31.1459 37.7694 31.6061 36.6364C32.0663 35.5033 32.7488 34.4739 33.6134 33.609C34.4781 32.744 35.5072 32.0611 36.6401 31.6006C37.773 31.14 38.9868 30.9111 40.2096 30.9274ZM30.9341 9.79554L30.9342 9.78804L30.9341 9.78054C30.9174 8.55769 31.1459 7.34389 31.6061 6.21081C32.0663 5.07772 32.7488 4.04833 33.6134 3.18341C34.4781 2.31849 35.5072 1.63558 36.6401 1.175C37.7731 0.71442 38.9868 0.485509 40.2096 0.501784L40.217 0.501882L40.2243 0.501764C41.4308 0.482384 42.6285 0.710094 43.7437 1.17088C44.8589 1.63167 45.868 2.31578 46.709 3.18113L46.7159 3.18824L46.7231 3.19508C47.6138 4.04177 48.3192 5.0641 48.7946 6.19741C49.2699 7.33072 49.5049 8.55035 49.4847 9.77914L49.4845 9.78714L49.4847 9.79513C49.5035 11.0104 49.2678 12.2161 48.7927 13.3348C48.3176 14.4536 47.6136 15.4604 46.726 16.2907L46.7137 16.3022L46.7023 16.3144C45.8753 17.199 44.8727 17.9013 43.7588 18.3763C42.6448 18.8513 41.444 19.0886 40.2331 19.073L40.2257 19.0729L40.2183 19.073C38.9901 19.0934 37.771 18.8584 36.6383 18.3831C35.5055 17.9078 34.4838 17.2024 33.6379 16.3116L33.6309 16.3041L33.6235 16.2969C32.7547 15.4545 32.0679 14.443 31.6053 13.3248C31.1428 12.2066 30.9144 11.0055 30.9341 9.79554ZM19.0659 40.2128H19.0659L19.066 40.2221C19.0883 41.4379 18.857 42.645 18.387 43.7665C17.917 44.888 17.2184 45.8992 16.3359 46.7358L16.3258 46.7454L16.3163 46.7555C15.48 47.6419 14.4677 48.3438 13.3444 48.8161C12.2211 49.2885 11.0114 49.5209 9.79303 49.4986L9.78436 49.4984L9.7757 49.4985C8.54939 49.5185 7.33209 49.2859 6.19956 48.8152C5.06704 48.3444 4.04353 47.6456 3.19273 46.7622L3.18722 46.7564L3.18153 46.7509C2.31216 45.9038 1.62579 44.8874 1.16485 43.7645C0.703906 42.6417 0.478191 41.4362 0.501659 40.2226L0.501819 40.2143L0.501706 40.2061C0.485 38.9832 0.713483 37.7694 1.17366 36.6364C1.63384 35.5033 2.31639 34.4739 3.18101 33.609C4.04562 32.744 5.07478 32.0611 6.2077 31.6006C7.34062 31.14 8.55434 30.9111 9.7772 30.9273L9.77719 30.9274H9.78385C11.0031 30.9274 12.2103 31.1676 13.3367 31.6343C14.4631 32.1009 15.4865 32.7849 16.3484 33.6472C17.2104 34.5095 17.8941 35.5331 18.3603 36.6596C18.8266 37.7862 19.0664 38.9935 19.0659 40.2128ZM9.77784 0.501765L9.78608 0.501875L9.79432 0.501713C11.0079 0.477858 12.2135 0.703386 13.3363 1.16433C14.4592 1.62528 15.4756 2.31183 16.3224 3.18147L16.3285 3.18775L16.3348 3.19381C17.2216 4.04289 17.9233 5.06617 18.3958 6.19937C18.8683 7.33258 19.1014 8.55124 19.0805 9.77883L19.0803 9.78711L19.0804 9.79539C19.1 11.0094 18.8661 12.2142 18.3939 13.3328C17.9216 14.4514 17.2213 15.4592 16.3377 16.292L16.3263 16.3027L16.3156 16.3141C15.4818 17.2044 14.4705 17.9099 13.3471 18.3851C12.2236 18.8604 11.013 19.0947 9.79338 19.073L9.78527 19.0728L9.77716 19.073C8.54894 19.091 7.33025 18.8549 6.19758 18.3796C5.06491 17.9043 4.04271 17.2 3.19514 16.3109L3.18862 16.304L3.18185 16.2974C2.31489 15.4542 1.62987 14.4423 1.16902 13.3241C0.708177 12.206 0.481277 11.0053 0.502317 9.79605L0.502452 9.78829L0.502346 9.78053C0.48564 8.55767 0.714123 7.34387 1.1743 6.21079C1.63448 5.0777 2.31703 4.04831 3.18165 3.18339C4.04626 2.31847 5.07542 1.63556 6.20834 1.17498C7.34126 0.714401 8.55498 0.485491 9.77784 0.501765Z" stroke="white" stroke-opacity="0.6"/>
<defs>
<linearGradient id="paint0_linear" x1="0" y1="0" x2="48" y2="48" gradientUnits="userSpaceOnUse">
<stop offset="0.197504" stop-color="white"/>
<stop offset="1" stop-color="white" stop-opacity="0"/>
</linearGradient>
<linearGradient id="paint1_linear" x1="0" y1="0" x2="48" y2="48" gradientUnits="userSpaceOnUse">
<stop offset="0.197504" stop-color="white"/>
<stop offset="1" stop-color="white" stop-opacity="0"/>
</linearGradient>
<linearGradient id="paint2_linear" x1="0" y1="0" x2="48" y2="48" gradientUnits="userSpaceOnUse">
<stop offset="0.197504" stop-color="white"/>
<stop offset="1" stop-color="white" stop-opacity="0"/>
</linearGradient>
<linearGradient id="paint3_linear" x1="0" y1="0" x2="48" y2="48" gradientUnits="userSpaceOnUse">
<stop offset="0.197504" stop-color="white"/>
<stop offset="1" stop-color="white" stop-opacity="0"/>
</linearGradient>
</defs>
</svg>
