<svg width="36" height="50" viewBox="0 0 36 50" fill="none" xmlns="http://www.w3.org/2000/svg">
<path d="M36 19.1041V47.9769C36 48.5134 35.7859 49.028 35.4048 49.4075C35.0236 49.7869 34.5067 50 33.9677 50H2.03226C1.49327 50 0.976356 49.7869 0.595234 49.4075C0.214112 49.028 0 48.5134 0 47.9769V19.1041C0 18.5675 0.214112 18.0529 0.595234 17.6735C0.976356 17.2941 1.49327 17.0809 2.03226 17.0809H8.70968C9.17167 17.0809 9.61473 17.2636 9.94141 17.5889C10.2681 17.9141 10.4516 18.3551 10.4516 18.815V20.948C10.4516 21.4079 10.2681 21.849 9.94141 22.1742C9.61473 22.4994 9.17167 22.6821 8.70968 22.6821H7.71097C7.17198 22.6821 6.65507 22.8952 6.27394 23.2747C5.89282 23.6541 5.67871 24.1687 5.67871 24.7052V42.3353C5.67871 42.8718 5.89282 43.3864 6.27394 43.7658C6.65507 44.1452 7.17198 44.3584 7.71097 44.3584H28.289C28.828 44.3584 29.3449 44.1452 29.7261 43.7658C30.1072 43.3864 30.3213 42.8718 30.3213 42.3353V24.7052C30.3213 24.1687 30.1072 23.6541 29.7261 23.2747C29.3449 22.8952 28.828 22.6821 28.289 22.6821H27.2903C26.8283 22.6821 26.3853 22.4994 26.0586 22.1742C25.7319 21.849 25.5484 21.4079 25.5484 20.948V18.815C25.5484 18.3551 25.7319 17.9141 26.0586 17.5889C26.3853 17.2636 26.8283 17.0809 27.2903 17.0809H33.9677C34.5067 17.0809 35.0236 17.2941 35.4048 17.6735C35.7859 18.0529 36 18.5675 36 19.1041Z" fill="url(#paint0_linear)" fill-opacity="0.21"/>
<path d="M27.7955 9.65028L18.0726 0L8.34968 9.65028C8.18597 9.81154 8.05601 10.0035 7.96731 10.2151C7.87862 10.4267 7.83295 10.6537 7.83295 10.8829C7.83295 11.1122 7.87862 11.3392 7.96731 11.5508C8.05601 11.7624 8.18597 11.9543 8.34968 12.1156L9.72871 13.4855C10.0588 13.8115 10.5049 13.9944 10.9698 13.9944C11.4348 13.9944 11.8809 13.8115 12.211 13.4855L15.2623 10.4595V28.6676C15.2623 29.1275 15.4458 29.5686 15.7725 29.8938C16.0991 30.219 16.5422 30.4017 17.0042 30.4017H18.961C19.423 30.4017 19.866 30.219 20.1927 29.8938C20.5194 29.5686 20.7029 29.1275 20.7029 28.6676V10.3006L23.911 13.4798C24.241 13.8057 24.6871 13.9887 25.1521 13.9887C25.617 13.9887 26.0632 13.8057 26.3932 13.4798L27.7752 12.1098C27.9393 11.95 28.0701 11.7594 28.1601 11.5491C28.25 11.3388 28.2973 11.1128 28.2991 10.8843C28.301 10.6557 28.2575 10.429 28.1711 10.2172C28.0846 10.0054 27.957 9.81277 27.7955 9.65028Z" fill="url(#paint1_linear)" fill-opacity="0.21"/>
<path d="M8.70056 10.0065L8.7019 10.0052L18.0726 0.704472L27.4409 10.0028C27.4413 10.0032 27.4417 10.0036 27.4421 10.004C27.5565 10.1195 27.6469 10.2561 27.7081 10.4062L28.1711 10.2172L27.7081 10.4062C27.7696 10.5567 27.8005 10.7178 27.7992 10.8801C27.7978 11.0425 27.7643 11.203 27.7003 11.3526C27.6364 11.5021 27.5433 11.6377 27.4264 11.7516L27.4264 11.7515L27.4232 11.7547L26.0419 13.124C26.0418 13.1241 26.0417 13.1242 26.0417 13.1242C25.8054 13.3574 25.4857 13.4887 25.1521 13.4887C24.8185 13.4887 24.4988 13.3575 24.2626 13.1243C24.2625 13.1242 24.2624 13.1241 24.2623 13.124L21.0549 9.94542L20.2029 9.10114V10.3006V28.6676C20.2029 28.9942 20.0726 29.3078 19.8399 29.5395C19.6072 29.7712 19.2911 29.9017 18.961 29.9017H17.0042C16.6741 29.9017 16.358 29.7712 16.1252 29.5395C15.8926 29.3078 15.7623 28.9942 15.7623 28.6676V10.4595V9.25949L14.9102 10.1045L11.8596 13.1298C11.8595 13.13 11.8593 13.1301 11.8591 13.1303C11.6229 13.3633 11.3033 13.4944 10.9698 13.4944C10.6364 13.4944 10.3168 13.3633 10.0806 13.1303C10.0804 13.1302 10.0802 13.13 10.0801 13.1298L8.70206 11.7609L8.70056 11.7594C8.58394 11.6445 8.49149 11.5079 8.42844 11.3575C8.36539 11.2071 8.33295 11.0458 8.33295 10.8829C8.33295 10.7201 8.36539 10.5588 8.42844 10.4084C8.49149 10.258 8.58394 10.1214 8.70056 10.0065ZM35.5 19.1041V47.9769C35.5 48.3801 35.3391 48.7673 35.052 49.0531C34.7648 49.339 34.3748 49.5 33.9677 49.5H2.03226C1.62515 49.5 1.23517 49.339 0.947989 49.0531C0.660885 48.7673 0.5 48.3801 0.5 47.9769V19.1041C0.5 18.7008 0.660884 18.3137 0.94799 18.0279C1.23517 17.742 1.62515 17.5809 2.03226 17.5809H8.70968C9.03978 17.5809 9.35592 17.7115 9.58866 17.9432C9.82132 18.1748 9.95161 18.4885 9.95161 18.815V20.948C9.95161 21.2746 9.82132 21.5882 9.58865 21.8198C9.35592 22.0515 9.03978 22.1821 8.70968 22.1821H7.71097C7.0401 22.1821 6.39625 22.4474 5.92119 22.9203C5.44605 23.3933 5.17871 24.0353 5.17871 24.7052V42.3353C5.17871 43.0052 5.44605 43.6472 5.92119 44.1202C6.39625 44.5931 7.04009 44.8584 7.71097 44.8584H28.289C28.9599 44.8584 29.6038 44.5931 30.0788 44.1202C30.5539 43.6472 30.8213 43.0052 30.8213 42.3353V24.7052C30.8213 24.0353 30.5539 23.3933 30.0788 22.9203C29.6037 22.4474 28.9599 22.1821 28.289 22.1821H27.2903C26.9602 22.1821 26.6441 22.0515 26.4113 21.8198C26.1787 21.5882 26.0484 21.2746 26.0484 20.948V18.815C26.0484 18.4885 26.1787 18.1748 26.4113 17.9432C26.6441 17.7115 26.9602 17.5809 27.2903 17.5809H33.9677C34.3748 17.5809 34.7648 17.742 35.052 18.0279C35.3391 18.3137 35.5 18.7008 35.5 19.1041Z" stroke="white" stroke-opacity="0.6"/>
<defs>
<linearGradient id="paint0_linear" x1="0" y1="0" x2="36" y2="50" gradientUnits="userSpaceOnUse">
<stop stop-color="white"/>
<stop offset="1" stop-color="white" stop-opacity="0"/>
</linearGradient>
<linearGradient id="paint1_linear" x1="0" y1="0" x2="36" y2="50" gradientUnits="userSpaceOnUse">
<stop stop-color="white"/>
<stop offset="1" stop-color="white" stop-opacity="0"/>
</linearGradient>
</defs>
</svg>
