<svg width="42" height="50" viewBox="0 0 42 50" fill="none" xmlns="http://www.w3.org/2000/svg">
<path fill-rule="evenodd" clip-rule="evenodd" d="M21 29.4102C22.7849 29.4143 24.531 28.9001 26.017 27.9327C27.5031 26.9653 28.6624 25.5882 29.3482 23.9758C30.034 22.3634 30.2154 20.5881 29.8695 18.8748C29.5236 17.1614 28.6659 15.587 27.4049 14.3509C26.144 13.1147 24.5366 12.2725 22.7862 11.9307C21.0358 11.5889 19.2211 11.7629 17.5718 12.4308C15.9226 13.0987 14.5129 14.2303 13.5213 15.6825C12.5297 17.1347 12.0008 18.8421 12.0015 20.5885C12.0001 21.7459 12.2318 22.8923 12.6833 23.9621C13.1348 25.0319 13.7973 26.0041 14.633 26.8234C15.4686 27.6426 16.461 28.2927 17.5535 28.7365C18.6459 29.1804 19.8171 29.4093 21 29.4102ZM22.792 49.3549C22.2919 49.7713 21.6567 50 21 50C20.3433 50 19.7081 49.7713 19.208 49.3549C6.4015 38.773 0 30.5574 0 20.8214C0 5.55123 11.347 0 21 0C30.9575 0 42 5.55123 42 20.8214C42 30.5574 35.5985 38.773 22.792 49.3549Z" fill="url(#paint0_linear)" fill-opacity="0.21"/>
<path d="M26.2898 28.3517C24.7219 29.3724 22.8808 29.9143 20.9996 29.9102C20.9994 29.9102 20.9991 29.9102 20.9989 29.9102L26.2898 28.3517ZM26.2898 28.3517C27.8581 27.3308 29.0832 25.8765 29.8083 24.1715C30.5335 22.4664 30.7256 20.5884 30.3596 18.7758C29.9936 16.9633 29.0866 15.2993 27.755 13.9938C26.4235 12.6885 24.7274 11.8003 22.882 11.4399C21.0367 11.0796 19.1235 11.263 17.3842 11.9673C15.6447 12.6717 14.1563 13.866 13.1084 15.4005C12.0606 16.935 11.5009 18.7403 11.5015 20.5879M26.2898 28.3517L11.5015 20.5879M11.5015 20.5879C11.5015 20.5882 11.5015 20.5884 11.5015 20.5887L12.0015 20.5885L11.5015 20.5879ZM22.4735 48.9695L22.4721 48.9707C22.0627 49.3115 21.5409 49.5 21 49.5C20.4591 49.5 19.9373 49.3115 19.5279 48.9707L19.5265 48.9695C6.72258 38.3897 0.5 30.3069 0.5 20.8214C0.5 13.3245 3.27825 8.26613 7.19608 5.07191C11.1304 1.86425 16.2601 0.5 21 0.5C25.8945 0.5 31.0222 1.8654 34.9163 5.07044C38.7944 8.26231 41.5 13.3197 41.5 20.8214C41.5 30.3069 35.2774 38.3897 22.4735 48.9695Z" stroke="white" stroke-opacity="0.6"/>
<defs>
<linearGradient id="paint0_linear" x1="6.5038" y1="-2.72727" x2="23.5205" y2="37.0902" gradientUnits="userSpaceOnUse">
<stop stop-color="white"/>
<stop offset="1" stop-color="white" stop-opacity="0"/>
</linearGradient>
</defs>
</svg>
