<svg width="70" height="50" viewBox="0 0 70 50" fill="none" xmlns="http://www.w3.org/2000/svg">
<path d="M58.1069 9.01441C56.6703 7.60577 54.8391 6.64726 52.8456 6.2606C50.8521 5.87393 48.7863 6.07655 46.9105 6.84273C45.0347 7.6089 43.4336 8.90407 42.3105 10.5638C41.1874 12.2235 40.5929 14.1728 40.6025 16.1643C40.6054 18.8236 41.686 21.3729 43.6065 23.2516C45.5271 25.1303 48.1304 26.1847 50.844 26.1827C52.1901 26.1875 53.524 25.9319 54.7692 25.4307C56.0144 24.9295 57.1465 24.1924 58.1005 23.2618C59.0546 22.3312 59.812 21.2252 60.3293 20.0073C60.8465 18.7894 61.1135 17.4835 61.115 16.1643C61.1363 14.8378 60.8816 13.5209 60.3663 12.2941C59.851 11.0672 59.086 9.95621 58.1179 9.02882L58.1069 9.01441ZM34.0383 11.4794C34.0609 9.97096 33.7692 8.47388 33.1812 7.0797C32.5932 5.68551 31.7211 4.42353 30.6184 3.37091C29.5485 2.28356 28.2619 1.42335 26.8386 0.843706C25.4152 0.264062 23.8854 -0.0226422 22.3442 0.00139564C20.806 -0.0214517 19.2793 0.26587 17.8591 0.845517C16.4389 1.42516 15.1555 2.28476 14.0885 3.37091C12.9858 4.42353 12.1137 5.68551 11.5257 7.0797C10.9376 8.47388 10.646 9.97096 10.6685 11.4794C10.6453 12.9879 10.9367 14.4852 11.5248 15.8794C12.1129 17.2737 12.9852 18.5356 14.0885 19.5879C15.1605 20.6651 16.4457 21.5164 17.8653 22.0896C19.2849 22.6628 20.8091 22.9458 22.3442 22.9213C23.8823 22.947 25.4096 22.6646 26.8324 22.0914C28.2551 21.5182 29.5435 20.6663 30.6184 19.5879C31.7216 18.5356 32.594 17.2737 33.1821 15.8794C33.7702 14.4852 34.0616 12.9879 34.0383 11.4794Z" fill="url(#paint0_linear)" fill-opacity="0.21"/>
<path d="M69.9959 47.0955L69.9407 46.7964C69.9407 46.7964 69.9407 46.7675 69.9407 46.7567C69.6943 45.3345 69.277 43.9458 68.6977 42.6196C67.7308 40.3542 66.3189 38.2971 64.5423 36.5653C62.7484 34.7953 60.6139 33.3918 58.2626 32.436C55.9112 31.4803 53.3896 30.9913 50.844 30.9975C49.4216 31.0217 48.0051 31.1835 46.615 31.4804C46.5268 31.4984 46.4348 31.5164 46.3503 31.5416C45.8315 31.6908 45.3697 31.9876 45.0233 32.3943C44.677 32.8011 44.4617 33.2996 44.4049 33.8264C44.3994 33.9176 44.3994 34.0091 44.4049 34.1003C44.3993 34.1819 44.3993 34.2638 44.4049 34.3454C44.4011 34.3583 44.4011 34.372 44.4049 34.385C44.4432 34.7412 44.5559 35.0859 44.7359 35.3977C44.8131 35.5058 44.883 35.6139 44.9528 35.722C47.2951 39.2888 48.7279 43.3552 49.1304 47.5784C49.1266 47.5913 49.1266 47.6051 49.1304 47.618C49.202 48.2705 49.5173 48.8739 50.0156 49.3123C50.5139 49.7507 51.1599 49.9931 51.8296 49.9929H67.2746C67.9944 49.9929 68.6847 49.7127 69.1936 49.2139C69.7026 48.7152 69.9885 48.0387 69.9885 47.3333C70.0008 47.254 70.0032 47.1748 69.9959 47.0955Z" fill="url(#paint1_linear)" fill-opacity="0.21"/>
<path d="M44.6881 47.3404C44.6881 48.0458 44.4021 48.7223 43.8932 49.221C43.3842 49.7198 42.6939 50 41.9742 50H2.72171C2.0016 50 1.31092 49.7199 0.801383 49.2212C0.291841 48.7226 0.00509442 48.0461 0.00411997 47.3404C-0.00137332 47.2492 -0.00137332 47.1578 0.00411997 47.0665C0.00411997 46.9764 0.0298616 46.8899 0.0445711 46.8035C0.830158 41.5613 3.51371 36.7709 7.60514 33.3072C11.6966 29.8435 16.9229 27.9376 22.3295 27.9376C27.7362 27.9376 32.9625 29.8435 37.0539 33.3072C41.1454 36.7709 43.8289 41.5613 44.6145 46.8035L44.6586 47.1026C44.6783 47.1819 44.6881 47.2611 44.6881 47.3404Z" fill="url(#paint2_linear)" fill-opacity="0.21"/>
<path d="M50.844 26.1827C52.1901 26.1875 53.524 25.9319 54.7692 25.4307C56.0144 24.9295 57.1465 24.1924 58.1005 23.2618C59.0546 22.3312 59.812 21.2252 60.3293 20.0073C60.8465 18.7894 61.1135 17.4835 61.115 16.1643C61.1363 14.8378 60.8816 13.5209 60.3663 12.2941C59.851 11.0672 59.086 9.95621 58.1179 9.02882L50.844 26.1827ZM50.844 26.1827C48.1304 26.1847 45.5271 25.1303 43.6065 23.2516M50.844 26.1827L43.6065 23.2516M43.6065 23.2516C41.686 21.3729 40.6054 18.8236 40.6025 16.1643L43.6065 23.2516ZM41.1025 16.1637L41.1025 16.1619C41.0933 14.2718 41.6575 12.4208 42.7246 10.844C43.7918 9.26702 45.3141 8.03489 47.0996 7.3056C48.8851 6.57628 50.8521 6.38326 52.7504 6.75145C54.6369 7.11738 56.3696 8.02093 57.7316 9.34684L57.7442 9.36323L57.772 9.38989C58.6911 10.2703 59.4167 11.3244 59.9053 12.4877C60.3939 13.6509 60.6353 14.8991 60.615 16.1562L60.615 16.1562L60.615 16.1637C60.6136 17.4157 60.3602 18.6554 59.869 19.8119C59.3779 20.9684 58.6584 22.0192 57.7514 22.9039C56.8444 23.7886 55.7676 24.4898 54.5825 24.9669C53.3974 25.4439 52.1275 25.6873 50.8458 25.6827L50.8437 25.6827C48.2594 25.6846 45.7821 24.6804 43.9561 22.8942C42.1305 21.1083 41.1053 18.6872 41.1025 16.1637ZM33.5384 11.4719L33.5383 11.4795L33.5384 11.4871C33.5605 12.926 33.2826 14.3545 32.7214 15.6851C32.1602 17.0157 31.3273 18.2208 30.2733 19.226L30.2732 19.2259L30.2642 19.2349C29.2374 20.2651 28.0061 21.0795 26.6455 21.6276C25.2849 22.1758 23.8241 22.446 22.3526 22.4214L22.3444 22.4213L22.3363 22.4214C20.8677 22.4448 19.41 22.1741 18.0525 21.626C16.6951 21.0779 15.4669 20.2641 14.4429 19.2352L14.4431 19.235L14.4336 19.226C13.3796 18.2208 12.5467 17.0157 11.9855 15.6851C11.4243 14.3545 11.1463 12.926 11.1685 11.4871L11.1686 11.4795L11.1685 11.4719C11.147 10.033 11.4252 8.60457 11.9864 7.27401C12.5476 5.94342 13.3802 4.73828 14.4338 3.73259L14.4396 3.72704L14.4452 3.7213C15.4641 2.68405 16.6904 1.86258 18.0481 1.30844C19.4058 0.7543 20.8656 0.479489 22.3368 0.501341L22.3444 0.501454L22.352 0.501335C23.8262 0.478343 25.2891 0.752589 26.65 1.30678C28.0108 1.86096 29.2402 2.6831 30.262 3.72159L30.2675 3.72718L30.2731 3.73259C31.3267 4.73828 32.1593 5.94342 32.7205 7.27401C33.2817 8.60457 33.5599 10.033 33.5384 11.4719ZM69.4407 46.8V46.8421L69.449 46.887L69.4994 47.1601C69.5011 47.1921 69.4995 47.2242 69.4944 47.2569L69.4885 47.2949V47.3333C69.4885 47.9028 69.2578 48.451 68.8437 48.8568C68.4292 49.263 67.865 49.4929 67.2746 49.4929H51.8296H51.8294C51.2802 49.4931 50.7519 49.2942 50.3459 48.9369C49.9575 48.5952 49.7074 48.1321 49.6359 47.6309L49.6372 47.6264L49.6281 47.5309C49.2178 43.2262 47.7575 39.082 45.3708 35.4475L45.3703 35.4467C45.3061 35.3474 45.2358 35.2387 45.1579 35.1283C45.0286 34.8989 44.9444 34.6483 44.9091 34.3895L44.9037 34.3111C44.8997 34.2523 44.8997 34.1933 44.9037 34.1345L44.9059 34.1024L44.904 34.0702C44.9 34.0029 44.8997 33.9355 44.9033 33.8681C44.9512 33.4464 45.1248 33.0464 45.404 32.7185C45.686 32.3874 46.0631 32.1444 46.4884 32.0222L46.4932 32.0208C46.5488 32.0042 46.6118 31.9913 46.7012 31.9731L46.715 31.9703L46.7195 31.9693C48.0767 31.6795 49.4599 31.5214 50.8489 31.4974C53.3285 31.492 55.7844 31.9685 58.0743 32.8992C60.3653 33.8304 62.4443 35.1977 64.1911 36.9212L64.1933 36.9233C65.9229 38.6094 67.297 40.6116 68.2379 42.8159L68.2396 42.8197C68.7971 44.0962 69.2002 45.4321 69.4407 46.8ZM0.50412 47.3397L0.504099 47.325L0.503216 47.3104C0.498928 47.2392 0.498928 47.1678 0.503216 47.0966L0.50412 47.0816V47.0665L0.50412 47.0666C0.504125 47.0666 0.504308 47.0573 0.5101 47.0267C0.512621 47.0134 0.515281 47.0005 0.518903 46.9831L0.521691 46.9696C0.526309 46.9473 0.532225 46.9183 0.537493 46.8873L0.537588 46.8873L0.53905 46.8776C1.30645 41.7567 3.92815 37.0751 7.92821 33.6888C11.9285 30.3023 17.0401 28.4376 22.3295 28.4376C27.619 28.4376 32.7306 30.3023 36.7309 33.6888C40.7309 37.0751 43.3526 41.7567 44.12 46.8776L44.164 47.1755L44.1675 47.1993L44.1733 47.2226C44.1835 47.2638 44.1881 47.3028 44.1881 47.3404C44.1881 47.9099 43.9573 48.4581 43.5432 48.8639C43.1288 49.2701 42.5645 49.5 41.9742 49.5H2.72171C2.13087 49.5 1.56616 49.2701 1.1511 48.8639C0.736388 48.458 0.504906 47.9096 0.50412 47.3397Z" stroke="white" stroke-opacity="0.6"/>
<defs>
<linearGradient id="paint0_linear" x1="22.9798" y1="-7.72727" x2="64.1945" y2="50.4312" gradientUnits="userSpaceOnUse">
<stop stop-color="white"/>
<stop offset="0.878328" stop-color="white" stop-opacity="0"/>
</linearGradient>
<linearGradient id="paint1_linear" x1="22.9798" y1="-7.72727" x2="64.1945" y2="50.4312" gradientUnits="userSpaceOnUse">
<stop stop-color="white"/>
<stop offset="0.878328" stop-color="white" stop-opacity="0"/>
</linearGradient>
<linearGradient id="paint2_linear" x1="22.9798" y1="-7.72727" x2="64.1945" y2="50.4312" gradientUnits="userSpaceOnUse">
<stop stop-color="white"/>
<stop offset="0.878328" stop-color="white" stop-opacity="0"/>
</linearGradient>
</defs>
</svg>
