<svg width="70" height="50" viewBox="0 0 70 50" fill="none" xmlns="http://www.w3.org/2000/svg">
<path fill-rule="evenodd" clip-rule="evenodd" d="M69.1478 8.77273C69.6996 9.40564 70.0002 10.1925 70 11.0035V38.9965C70.0017 39.6705 69.796 40.3313 69.4065 40.9025C69.0171 41.4736 68.4598 41.9319 67.7991 42.2244C67.1384 42.5169 66.4011 42.6316 65.6724 42.5554C64.9437 42.4792 64.2533 42.2151 63.681 41.7937L52.0168 33.2168C51.56 32.8816 51.1914 32.456 50.9385 31.9717C50.6855 31.4874 50.5548 30.9568 50.556 30.4196V19.5804C50.5548 19.0432 50.6855 18.5126 50.9385 18.0283C51.1914 17.544 51.56 17.1184 52.0168 16.7832L63.681 8.21329C64.4869 7.62174 65.5153 7.34838 66.5404 7.45328C67.5654 7.55818 68.5032 8.03274 69.1478 8.77273ZM35 5.71775e-07C38.0929 -0.000927166 41.0595 1.12716 43.2476 3.13619C45.4356 5.14522 46.6659 7.8707 46.6679 10.7133V39.2867C46.6659 42.1293 45.4356 44.8548 43.2476 46.8638C41.0595 48.8728 38.0929 50.0009 35 50H11.6679C8.57507 50.0009 5.60843 48.8728 3.42038 46.8638C1.23233 44.8548 0.00201736 42.1293 0 39.2867V10.7133C0.00201736 7.8707 1.23233 5.14522 3.42038 3.13619C5.60843 1.12716 8.57507 -0.000927166 11.6679 5.71775e-07H35Z" fill="url(#paint0_linear)" fill-opacity="0.21"/>
<path d="M68.7708 9.10114L68.7709 9.1013C69.2464 9.64664 69.5001 10.3178 69.5 11.0034V38.9965V38.9978C69.5014 39.5682 69.3276 40.1307 68.9934 40.6208C68.6589 41.1114 68.1763 41.5106 67.5967 41.7672C67.017 42.0238 66.3675 42.1254 65.7244 42.0581C65.0813 41.9909 64.4759 41.7581 63.9774 41.3911L63.9772 41.3909L52.313 32.814L52.3126 32.8137C51.9151 32.522 51.5979 32.1543 51.3817 31.7402C51.1656 31.3264 51.055 30.8755 51.056 30.4207V30.4196V19.5804V19.5793C51.055 19.1245 51.1656 18.6736 51.3817 18.2598C51.5979 17.8457 51.9151 17.478 52.3126 17.1863L52.3129 17.1862L63.9768 8.61636C63.9769 8.61634 63.9769 8.61631 63.9769 8.61629C63.977 8.61627 63.977 8.61625 63.977 8.61622C64.6797 8.10054 65.5836 7.85798 66.4894 7.95068C67.3952 8.04338 68.214 8.46196 68.7708 9.10114ZM70 11.0035V38.9965L63.681 8.21329C64.4869 7.62174 65.5153 7.34838 66.5404 7.45328C67.5654 7.55818 68.5032 8.03274 69.1478 8.77273C69.6996 9.40564 70.0002 10.1925 70 11.0035ZM35 0.500001L35.0001 0.500001C37.9734 0.499109 40.8177 1.58396 42.9094 3.50449C44.9996 5.42372 46.166 8.01789 46.1679 10.7136V39.2864C46.166 41.9821 44.9996 44.5763 42.9094 46.4955C40.8177 48.416 37.9734 49.5009 35.0001 49.5H35H11.6679H11.6678C8.69453 49.5009 5.85021 48.416 3.75854 46.4955C1.66834 44.5763 0.501961 41.9822 0.5 39.2865V10.7135C0.501961 8.01779 1.66834 5.42368 3.75854 3.50449C5.85021 1.58396 8.69453 0.499109 11.6678 0.500001H11.6679H35Z" stroke="white" stroke-opacity="0.6"/>
<defs>
<linearGradient id="paint0_linear" x1="14.7071" y1="-16.3636" x2="30.4692" y2="37.3677" gradientUnits="userSpaceOnUse">
<stop stop-color="white"/>
<stop offset="1" stop-color="white" stop-opacity="0"/>
</linearGradient>
</defs>
</svg>
