<svg width="70" height="50" viewBox="0 0 70 50" fill="none" xmlns="http://www.w3.org/2000/svg">
<path d="M69.4494 26.9097C69.8069 26.4272 70 25.8423 70 25.2413C70 24.6404 69.8069 24.0554 69.4494 23.5729C64.889 17.4641 59.6979 12.7407 53.8761 9.40278C47.8533 5.93056 41.5591 4.19444 34.9934 4.19444C30.5527 4.19096 26.1486 5.00056 21.9983 6.58333L15.4558 0L10.4171 5.07639L54.992 50L60.0306 44.9236L55.335 40.191C60.5608 36.9317 65.2656 32.5046 69.4494 26.9097ZM45.3964 14.7569C46.852 16.2185 47.9884 17.9673 48.7335 19.8924C49.4417 21.7396 49.7758 23.7097 49.7163 25.6877C49.6568 27.6657 49.2049 29.612 48.387 31.4132C48.2033 31.8125 48.0058 32.2049 47.791 32.5833L42.6241 27.3958C42.7784 26.8569 42.8737 26.3027 42.9083 25.7431C42.9811 24.582 42.8026 23.4189 42.385 22.3333C41.9876 21.299 41.3797 20.3589 40.5999 19.5728C39.8201 18.7867 38.8856 18.1719 37.8558 17.7674C36.782 17.3592 35.6337 17.1852 34.4875 17.2569C33.9289 17.2927 33.3753 17.3834 32.8345 17.5278L27.7231 12.3472C28.0948 12.1271 28.4776 11.9266 28.8701 11.7465C30.5063 10.9873 32.2688 10.5388 34.0682 10.4236C36.2053 10.2775 38.3481 10.6108 40.3404 11.3993C42.2424 12.1503 43.9651 13.2944 45.3964 14.7569ZM27.0959 25.7882C27.1434 26.5863 27.3141 27.3723 27.6018 28.1181C27.9878 29.1639 28.5982 30.1122 29.3899 30.8958C30.7328 32.2638 32.5314 33.0883 34.4424 33.2118L27.0959 25.7882ZM0.000293549 25.2326C-0.00849295 25.8355 0.180183 26.4246 0.537423 26.9097C5.10938 33.0185 10.3005 37.7454 16.1107 41.0903C22.1312 44.5347 28.4277 46.2581 35.0003 46.2604C38.6562 46.2632 42.2912 45.7094 45.7811 44.6181L40.285 39.0625C37.9732 39.9405 35.4785 40.2234 33.0293 39.8853C30.5801 39.5472 28.2547 38.5989 26.266 37.1272C24.2773 35.6555 22.6888 33.7074 21.6459 31.4614C20.6031 29.2153 20.1392 26.743 20.2969 24.2708C20.3943 22.7737 20.7167 21.2999 21.2533 19.8993L12.8602 11.4444C8.34832 14.5787 4.24073 18.6192 0.537423 23.566C0.182343 24.0483 -0.0062192 24.6334 0.000293549 25.2326Z" fill="url(#paint0_linear)" fill-opacity="0.21"/>
<path d="M53.6264 9.83595L53.6274 9.83654C59.382 13.136 64.5231 17.8101 69.048 23.871C69.3415 24.2672 69.5 24.7477 69.5 25.2413C69.5 25.7349 69.3415 26.2153 69.0481 26.6115C64.8967 32.1628 60.2366 36.5446 55.0704 39.7667L54.5388 40.0983L54.9801 40.5431L59.3262 44.9235L54.992 49.2902L11.1216 5.07645L15.456 0.709537L21.6437 6.93579L21.8728 7.16633L22.1765 7.05051C26.2698 5.48947 30.6133 4.69101 34.993 4.69444H34.9934C41.4662 4.69444 47.6749 6.40483 53.6264 9.83595ZM49.2004 19.7134L49.1998 19.7119C48.43 17.723 47.2559 15.916 45.7522 14.4057C44.2721 12.8936 42.4908 11.7108 40.5241 10.9342C38.4629 10.1186 36.2462 9.77373 34.0352 9.9247C32.1747 10.0439 30.3524 10.5077 28.6606 11.2925C28.2526 11.4798 27.8547 11.6882 27.4683 11.917L26.9178 12.243L27.3672 12.6984L32.4786 17.8789L32.6827 18.0858L32.9635 18.0109C33.4725 17.875 33.9937 17.7896 34.5194 17.7559C35.5934 17.6888 36.6693 17.8517 37.6756 18.2338C38.6397 18.6129 39.5147 19.1888 40.2449 19.9249C40.9758 20.6618 41.5457 21.543 41.9183 22.5127L41.9183 22.5128C42.3101 23.5312 42.4776 24.6224 42.4093 25.7118L42.4092 25.7122C42.3769 26.2357 42.2878 26.7541 42.1434 27.2582L42.0626 27.5406L42.2699 27.7487L47.4367 32.9362L47.901 33.4023L48.2258 32.8302C48.4488 32.4373 48.6527 32.032 48.8413 31.6221L48.8423 31.6199C49.6876 29.7584 50.1546 27.7469 50.216 25.7027C50.2775 23.6585 49.9323 21.6225 49.2004 19.7134ZM28.0709 27.945L28.0709 27.9449L28.0683 27.9381C27.9817 27.7135 27.9064 27.4851 27.8426 27.2536L32.9979 32.4629C31.7735 32.123 30.65 31.4657 29.7468 30.5456L29.7468 30.5455L29.7417 30.5405C29.0019 29.8083 28.4316 28.9223 28.0709 27.945ZM0.50024 25.2399L0.500402 25.2399L0.500264 25.2272C0.494937 24.737 0.648975 24.2585 0.938925 23.864C4.51931 19.0817 8.47438 15.161 12.8023 12.0958L20.6734 20.0249C20.1864 21.3809 19.8916 22.7992 19.7979 24.2384L19.7979 24.239C19.635 26.7945 20.1144 29.3501 21.1924 31.6719C22.2704 33.9938 23.9126 36.0076 25.9686 37.5291C28.0246 39.0506 30.4287 40.0311 32.9609 40.3806C35.3851 40.7153 37.8525 40.4615 40.1557 39.6427L44.8405 44.3782C41.6425 45.2973 38.3303 45.7629 35.0007 45.7604H35.0005C28.52 45.7581 22.3087 44.0601 16.3596 40.6566C10.6166 37.3503 5.4754 32.6727 0.938974 26.6118C0.647211 26.2149 0.493053 25.7331 0.50024 25.2399Z" stroke="white" stroke-opacity="0.6"/>
<defs>
<linearGradient id="paint0_linear" x1="13.6094" y1="-4.54546" x2="57.2457" y2="39.0045" gradientUnits="userSpaceOnUse">
<stop stop-color="white"/>
<stop offset="1" stop-color="white" stop-opacity="0"/>
</linearGradient>
</defs>
</svg>
